<svg xmlns="http://www.w3.org/2000/svg" viewBox="0 0 3381.00 3370.00"><g transform="translate(0,0)"><g transform="translate(0.000000,3370.000000) scale(0.100000,-0.100000)"
fill="#E30004" stroke="none">
<path d="M17545 33683 c-502 -24 -936 -68 -1365 -139 -1728 -285 -3223 -975
-4450 -2055 -990 -871 -1630 -1951 -1824 -3079 -54 -314 -61 -400 -61 -795 0
-387 4 -449 51 -735 153 -936 625 -1850 1411 -2730 71 -80 708 -746 1414
-1480 1783 -1854 1759 -1830 1869 -1959 1069 -1251 1523 -2819 1289 -4446
-124 -869 -464 -1749 -974 -2525 -146 -223 -229 -336 -575 -775 -823 -1047
-1236 -1608 -1672 -2270 -672 -1021 -1021 -1731 -1263 -2570 -440 -1529 -340
-3079 290 -4495 378 -849 917 -1522 1677 -2096 997 -751 2361 -1266 3848
-1453 454 -57 757 -75 1280 -75 444 -1 635 7 985 40 1327 123 2625 465 4005
1054 3652 1560 6601 4429 8519 8290 480 965 836 1854 1122 2798 363 1202 569
2345 656 3647 22 330 25 1416 5 1735 -62 985 -179 1800 -387 2706 -375 1630
-1062 3367 -1940 4899 -650 1136 -1428 2198 -2320 3171 -198 216 -868 880
-1085 1075 -1234 1112 -2521 1989 -4045 2758 -1872 945 -3552 1414 -5370 1501
-185 9 -929 11 -1090 3z M4250 24139 c-436 -29 -880 -120 -1240 -254 -170 -63
-499 -226 -645 -320 -517 -331 -921 -772 -1227 -1341 -319 -592 -624 -1398
-813 -2152 -228 -913 -325 -1763 -312 -2747 10 -777 67 -1286 257 -2290 367
-1944 914 -3713 1656 -5357 128 -284 453 -939 603 -1216 822 -1517 2246 -3242
3715 -4501 1172 -1005 2306 -1658 3293 -1897 77 -19 148 -34 156 -34 22 0 82
159 108 282 18 89 20 127 16 278 -5 215 -15 270 -128 719 -260 1030 -371 1917
-356 2851 15 949 154 1764 456 2670 460 1379 1214 2672 2656 4555 515 673 804
1123 1064 1657 250 513 379 936 443 1448 20 158 16 641 -5 805 -83 625 -312
1230 -705 1860 -797 1279 -1988 2348 -3877 3483 -1300 780 -2697 1297 -3940
1457 -349 44 -879 65 -1175 44z"/>
</g></g></svg>